<svg width="400" height="396" viewBox="0 0 5958 5908" fill="none" xmlns="http://www.w3.org/2000/svg">
<path opacity="0.25" d="M4679.77 727.364C4835.27 814.175 4971.9 924.775 5102.37 1039.87C5279.38 1194.86 5451.22 1364.22 5536.42 1568.1C5644.71 1827.13 5599.83 2109.09 5531.1 2371.25C5484.52 2548.75 5427.11 2724.97 5332.28 2885.47C5198.81 3111.54 5150.81 3252.2 5166.75 3507.71C5182.65 3759.06 5181.66 4010.32 5163.78 4260.21C5123.12 4818.91 4872.12 5424.18 4284.05 5630.08C3815.15 5794.67 3258.75 5653.43 2809.11 5413.27C2795.69 5406.2 2782.29 5398.97 2769.1 5391.62C2312.65 5138.35 1929.85 4793.02 1484.67 4524.59C1243.46 4379.13 982.439 4255.2 773.303 4075.01C349.775 3709.05 250.369 3170.89 412.328 2705.69C569.741 2253.35 488.612 1766.63 1021.7 1492.55C1371.62 1312.45 1793.29 1258.84 2159.75 1104.29C2500.32 960.554 2798.34 728.817 3141.31 603.457C3250.67 562.302 3366.81 534.998 3486.35 522.34C3883.34 483.464 4328.71 531.277 4679.77 727.364Z" fill="url(#paint0_linear)"/>
<path opacity="0.25" d="M5862.84 4093.27C5802.41 4246.22 5715.45 4385.69 5623.05 4520.28C5498.84 4702.71 5359.6 4882.6 5172.25 4989.57C4934.22 5125.5 4648.71 5126.85 4378.87 5103.77C4196.16 5088.11 4012.96 5062.5 3839.19 5000.85C3594.45 4914.1 3447.86 4891.7 3198.32 4943.92C2952.88 4995.48 2704.78 5031.82 2455.3 5052.73C1897.39 5098.89 1259.4 4962.45 960.785 4463.18C722.276 4065.14 771.353 3542.97 935.367 3102.32C940.163 3089.18 945.119 3076.04 950.234 3063.07C1126.08 2614.34 1404.71 2218.33 1597.34 1777.51C1701.73 1538.65 1781.66 1285.15 1925.53 1070.04C2217.91 634.278 2732.81 464.992 3218.14 541.97C3690.04 616.76 4157.15 471.561 4514.11 911.2C4748.63 1199.74 4869.96 1571.67 5081.93 1878.91C5279.04 2164.42 5556.07 2398.56 5735.43 2688.96C5793.79 2781.39 5839.58 2881.97 5871.47 2987.78C5974.26 3339.66 5999.36 3747.96 5862.84 4093.27Z" fill="#68E1FD"/>
<path opacity="0.37" d="M5863.15 4149.84C5802.72 4294.99 5715.76 4427.35 5623.36 4555.07C5499.16 4728.2 5359.92 4898.92 5172.57 5000.43C4934.55 5129.43 4649.05 5130.71 4379.21 5108.81C4196.5 5093.94 4013.31 5069.65 3839.54 5011.14C3594.81 4928.81 3448.22 4907.55 3198.69 4957.11C2953.48 5006.23 2705.59 5040.93 2456.32 5061.01C1898.43 5104.81 1260.45 4975.33 961.837 4501.52C723.174 4123.31 771.769 3627.76 935.781 3209.57C1128.73 3065.71 1379.06 2982.58 1654.33 2984.82C1875.89 2986.74 2088.01 3068.1 2303.82 3118.14C2643.67 3196.95 3006.06 3197.11 3336.64 3086.17C3523.67 3023.18 3726.37 2924.87 3907.32 3003.36C4022.26 3053.24 4126 3172.33 4246.53 3138.28C4298.01 3123.89 4337.17 3083.29 4375.22 3045.88C4483.41 2939.73 4603.26 2846.15 4732.49 2766.94C4784.77 2734.97 4840.08 2704.75 4900.82 2696.44C4973.55 2686.53 5046.29 2709.07 5117.26 2728.41C5319.08 2783.05 5526.72 2813.32 5735.74 2818.57C5794.1 2906.29 5839.89 3001.74 5871.78 3102.15C5974.57 3434.49 5999.66 3822.62 5863.15 4149.84Z" fill="#68E1FD"/>
<path d="M3436.87 4731.23C4372.78 4731.23 5131.49 4631.46 5131.49 4508.39C5131.49 4385.32 4372.78 4285.56 3436.87 4285.56C2500.96 4285.56 1742.25 4385.32 1742.25 4508.39C1742.25 4631.46 2500.96 4731.23 3436.87 4731.23Z" fill="url(#paint1_linear)"/>
<path d="M4789.4 3286.63C4791.36 3468.73 4757.19 3649.42 4688.85 3818.24C4620.52 3987.05 4519.39 4140.64 4391.31 4270.11C4263.22 4399.58 4110.74 4502.36 3942.67 4572.51C3774.6 4642.65 3594.29 4678.77 3412.17 4678.77C3230.05 4678.77 3049.74 4642.65 2881.67 4572.51C2713.6 4502.36 2561.11 4399.58 2433.03 4270.11C2304.95 4140.64 2203.82 3987.05 2135.48 3818.24C2067.15 3649.42 2032.98 3468.73 2034.94 3286.63C2034.94 3259.93 2035.74 3233.55 2037.18 3206.7C2225.17 3342.1 2484.77 3378.7 2699.62 3286.63C2724.07 3276.24 2749.97 3263.93 2776.19 3268.88C2798.73 3275.86 2819.25 3288.2 2835.97 3304.85C2883.23 3342.9 2938.11 3370.34 2996.91 3385.3C3055.7 3400.27 3117.03 3402.41 3176.73 3391.59C3236.42 3380.76 3293.09 3357.22 3342.89 3322.56C3392.68 3287.9 3434.44 3242.93 3465.32 3190.71C3643.56 3297.18 3852.65 3407.64 4048.47 3338.74C4074.27 3329.56 4099.07 3317.78 4122.48 3303.57V3303.57C4186.43 3265.68 4241.42 3212.61 4295.13 3160.66C4327.1 3231.64 4421.73 3244.26 4498.78 3234.99C4598.32 3222.8 4694.56 3191.48 4782.21 3142.76C4787.08 3190.56 4789.48 3238.58 4789.4 3286.63V3286.63Z" fill="#478695"/>
<path d="M4782.21 3142.76C4694.68 3191.56 4598.55 3222.98 4499.1 3235.31C4422.05 3244.58 4326.78 3231.95 4295.45 3160.98C4221.91 3232.11 4145.34 3304.85 4048.79 3339.22C3852.97 3408.11 3643.88 3297.65 3465.64 3191.19C3434.87 3243.51 3393.19 3288.59 3343.45 3323.38C3293.7 3358.16 3237.06 3381.83 3177.35 3392.78C3117.65 3403.73 3056.29 3401.7 2997.44 3386.83C2938.59 3371.96 2883.63 3344.6 2836.29 3306.61C2819.57 3289.96 2799.05 3277.61 2776.51 3270.64C2750.29 3265.68 2724.39 3277.99 2699.94 3288.38C2485.73 3379.98 2225.49 3343.37 2037.5 3208.46L2515.3 2438.59H4219.36L4782.21 3142.76Z" fill="white"/>
<path opacity="0.18" d="M2514.98 2437.32H2998.06L2776.19 3270.64C2749.97 3265.68 2724.07 3277.99 2699.62 3288.38C2485.41 3379.98 2225.17 3343.37 2037.18 3208.46L2514.98 2437.32Z" fill="white"/>
<path opacity="0.18" d="M4782.21 3142.75C4694.68 3191.55 4598.55 3222.98 4499.1 3235.31C4422.05 3244.58 4326.78 3231.95 4295.45 3160.98C4221.91 3232.11 4145.34 3304.85 4048.79 3339.22C3852.97 3408.11 3643.88 3297.65 3465.64 3191.19L3349.43 2438.11H4219.68L4782.21 3142.75Z" fill="white"/>
<path d="M3377.4 2557.37C3852.29 2557.37 4237.26 2506.41 4237.26 2443.55C4237.26 2380.69 3852.29 2329.73 3377.4 2329.73C2902.52 2329.73 2517.54 2380.69 2517.54 2443.55C2517.54 2506.41 2902.52 2557.37 3377.4 2557.37Z" fill="#478695"/>
<path d="M3377.4 2536.91C3766.91 2536.91 4082.68 2495.11 4082.68 2443.55C4082.68 2391.99 3766.91 2350.2 3377.4 2350.2C2987.88 2350.2 2672.12 2391.99 2672.12 2443.55C2672.12 2495.11 2987.88 2536.91 3377.4 2536.91Z" fill="url(#paint2_linear)"/>
<path opacity="0.13" d="M3977.81 2524.92L4295.13 3160.18C4295.13 3160.18 4373.93 3316.04 4662.79 3195.51L4124.72 2499.82L3977.81 2524.92Z" fill="#68E1FD"/>
<path d="M3218.18 2534.51L2998.06 1715.73L2448.8 1504.08L2406.92 1570.1L2922.93 1774.24L3135.7 2531.31L3218.18 2534.51Z" fill="#FFB54C"/>
<path d="M3709.74 2185.7L3668.17 2289.45L3569.7 2534.51H3537.57L3644.83 2262.91L3685.28 2160.45L3691.19 2145.58L3697.75 2160.13L3709.74 2185.7Z" fill="white"/>
<path d="M3709.74 2185.7L3668.17 2289.45C3661.82 2284.98 3656.17 2279.59 3651.39 2273.46C3648.97 2270.32 3646.78 2267.01 3644.83 2263.55L3685.28 2161.09C3689.46 2160.45 3693.72 2160.45 3697.91 2161.09L3709.74 2185.7Z" fill="url(#paint3_linear)"/>
<path d="M4041.12 2231.58C4040.25 2235.72 4037.78 2239.34 4034.24 2241.65C4016.73 2256.65 3996.39 2267.99 3974.43 2275.02C3952.47 2282.04 3929.33 2284.61 3906.36 2282.58C3875.67 2279.54 3842.42 2265.63 3829.79 2237.82C3815.91 2247.31 3800.02 2253.44 3783.36 2255.72C3766.7 2258 3749.74 2256.37 3733.83 2250.96C3717.91 2245.54 3703.47 2236.5 3691.66 2224.53C3679.85 2212.57 3670.99 2198.01 3665.78 2182.03C3628.05 2190.5 3588.25 2198.97 3551.16 2188.1C3514.08 2177.23 3481.63 2140.15 3490.58 2102.26C3478.66 2104.84 3466.29 2104.43 3454.57 2101.05C3442.85 2097.68 3432.16 2091.44 3423.44 2082.92C3405.53 2065.01 3407.45 2046.63 3401.86 2024.41C3401.23 2021.91 3400.43 2019.45 3399.46 2017.06C3392.75 1999.95 3380.44 1986.21 3379 1966.38C3378.37 1944.39 3382.69 1922.54 3391.63 1902.44C3547.6 1920.31 3704.93 1923.1 3861.44 1910.75H3863.36C3868.05 1910.06 3872.83 1910.79 3877.11 1912.83C3880.71 1915.56 3883.53 1919.2 3885.26 1923.38C3901.24 1953.12 3915.79 1982.69 3931.14 2012.42C3967.16 2082.01 4003.07 2151.65 4038.88 2221.35C4040.63 2224.46 4041.41 2228.03 4041.12 2231.58Z" fill="white"/>
<path d="M3862.72 1910.91L3439.9 2006.83C3426.16 2010.02 3412.41 2013.7 3398.82 2017.22C3392.11 2000.11 3379.8 1986.37 3378.36 1966.54C3377.73 1944.55 3382.05 1922.7 3390.99 1902.6C3546.96 1920.47 3704.29 1923.26 3860.8 1910.91H3862.72Z" fill="#B0D16F"/>
<path d="M3490.1 2102.26L3862.72 1910.44L3876.46 1912.51L3665.3 2182.03C3665.3 2182.03 3487.38 2232.38 3490.1 2102.26Z" fill="#B0D16F"/>
<path d="M3829.31 2237.82L3877.27 1912.99L4041.12 2231.58C4041.12 2231.58 3929.86 2335.49 3829.31 2237.82Z" fill="#B0D16F"/>
<path opacity="0.53" d="M2546.32 3692.5C2551.11 3744.77 2572.53 3801.04 2619.85 3823.74C2630.28 3810.01 2638.82 3794.96 2645.27 3778.98C2648.23 3772.64 2649.6 3765.67 2649.26 3758.68C2647.4 3750.29 2643.31 3742.56 2637.44 3736.3L2602.27 3691.7C2599.16 3697.02 2597.67 3703.13 2597.95 3709.28C2583.89 3691.07 2574.11 3669.92 2569.34 3647.42C2566.3 3633.83 2572.53 3594.35 2561.02 3587.31C2534.81 3571.01 2545.2 3678.91 2546.32 3692.5Z" fill="white"/>
<path opacity="0.53" d="M2304.45 3491.24C2296.59 3508.95 2291.78 3527.87 2290.23 3547.19C2289.79 3566.45 2295.81 3585.3 2307.33 3600.74C2310.61 3605.82 2315.27 3609.87 2320.76 3612.41C2324.6 3613.65 2328.66 3614.03 2332.67 3613.54C2336.67 3613.04 2340.52 3611.67 2343.94 3609.53C2367.92 3596.42 2373.67 3565.25 2377.03 3538.08C2380.3 3518.44 2380.3 3498.4 2377.03 3478.77C2373.35 3462.78 2364.24 3401.72 2350.49 3402.52C2325.72 3403.96 2311.49 3473.65 2304.45 3491.24Z" fill="white"/>
<path opacity="0.53" d="M2449.13 3979.6C2448.88 3992.5 2450.77 4005.36 2454.72 4017.64C2459.32 4029.62 2467.83 4039.7 2478.86 4046.25C2482.15 4048.56 2486.04 4049.84 2490.05 4049.93C2492.73 4049.76 2495.34 4048.99 2497.68 4047.69C2500.03 4046.4 2502.07 4044.59 2503.64 4042.42C2514.99 4028.19 2510.67 4007.41 2505.88 3989.83C2502.91 3976.91 2497.89 3964.55 2491.01 3953.22C2484.62 3943.95 2463.51 3909.1 2455.2 3913.1C2439.7 3920.61 2448.33 3967.13 2449.13 3979.6Z" fill="white"/>
<path opacity="0.53" d="M3738.51 3491.24C3730.65 3508.95 3725.84 3527.87 3724.28 3547.19C3723.94 3566.43 3729.95 3585.26 3741.39 3600.74C3744.67 3605.82 3749.33 3609.87 3754.82 3612.41C3758.66 3613.65 3762.72 3614.03 3766.72 3613.54C3770.73 3613.04 3774.58 3611.67 3777.99 3609.53C3801.97 3596.42 3807.89 3565.25 3811.08 3538.08C3814.52 3518.46 3814.52 3498.39 3811.08 3478.77C3807.41 3462.78 3798.3 3401.72 3784.55 3402.52C3759.13 3403.96 3745.06 3473.65 3738.51 3491.24Z" fill="white"/>
<path opacity="0.53" d="M3869.91 3891.35C3864.61 3903.36 3861.37 3916.16 3860.32 3929.24C3860.05 3942.27 3864.1 3955.03 3871.83 3965.53C3874.06 3968.99 3877.22 3971.76 3880.94 3973.52C3883.59 3974.37 3886.38 3974.63 3889.14 3974.3C3891.9 3973.97 3894.56 3973.05 3896.93 3971.6C3912.91 3962.65 3917.23 3941.39 3919.47 3923.65C3921.7 3910.36 3921.7 3896.8 3919.47 3883.52C3917.07 3872.17 3910.83 3831.25 3901.56 3831.73C3883.98 3832.21 3874.39 3879.37 3869.91 3891.35Z" fill="white"/>
<path d="M4789.4 3286.63C4789.42 3467.5 4753.81 3646.61 4684.6 3813.72C4615.39 3980.84 4513.94 4132.68 4386.04 4260.58C4258.14 4388.48 4106.3 4489.93 3939.19 4559.14C3772.08 4628.35 3592.97 4663.96 3412.09 4663.94C4042.24 4618.86 4122.49 3303.41 4122.49 3303.41C4186.43 3265.52 4241.42 3212.45 4295.13 3160.5C4327.1 3231.48 4421.73 3244.1 4498.78 3234.83C4598.31 3222.69 4694.55 3191.43 4782.21 3142.76C4787.08 3190.56 4789.49 3238.58 4789.4 3286.63V3286.63Z" fill="url(#paint4_linear)"/>
<defs>
<linearGradient id="paint0_linear" x1="418.685" y1="2545.75" x2="5380.65" y2="3361.81" gradientUnits="userSpaceOnUse">
<stop stop-color="#401798"/>
<stop offset="1" stop-color="#FFB54C"/>
</linearGradient>
<linearGradient id="paint1_linear" x1="11071.5" y1="5754.62" x2="-7848.4" y2="2666.39" gradientUnits="userSpaceOnUse">
<stop offset="0.01"/>
<stop offset="0.13" stop-opacity="0.69"/>
<stop offset="0.25" stop-opacity="0.32"/>
<stop offset="1" stop-opacity="0"/>
</linearGradient>
<linearGradient id="paint2_linear" x1="228277" y1="16702.6" x2="228444" y2="40897.9" gradientUnits="userSpaceOnUse">
<stop offset="0.01"/>
<stop offset="0.13" stop-opacity="0.69"/>
<stop offset="0.25" stop-opacity="0.32"/>
<stop offset="1" stop-opacity="0"/>
</linearGradient>
<linearGradient id="paint3_linear" x1="18786.2" y1="17979.8" x2="17868.6" y2="21467" gradientUnits="userSpaceOnUse">
<stop offset="0.01"/>
<stop offset="0.13" stop-opacity="0.69"/>
<stop offset="0.25" stop-opacity="0.32"/>
<stop offset="1" stop-opacity="0"/>
</linearGradient>
<linearGradient id="paint4_linear" x1="588232" y1="407350" x2="22514.2" y2="323744" gradientUnits="userSpaceOnUse">
<stop offset="0.01"/>
<stop offset="0.13" stop-opacity="0.69"/>
<stop offset="0.25" stop-opacity="0.32"/>
<stop offset="1" stop-opacity="0"/>
</linearGradient>
</defs>
</svg>
